<svg id="visual" viewBox="0 0 1800 1200" width="1800" height="1200" xmlns="http://www.w3.org/2000/svg" xmlns:xlink="http://www.w3.org/1999/xlink" version="1.1"><rect x="0" y="0" width="1800" height="1200" fill="#FFFFFF"></rect><defs><linearGradient id="grad1_0" x1="33.3%" y1="0%" x2="100%" y2="100%"><stop offset="20%" stop-color="#ffffff" stop-opacity="1"></stop><stop offset="80%" stop-color="#ffffff" stop-opacity="1"></stop></linearGradient></defs><defs><linearGradient id="grad2_0" x1="0%" y1="0%" x2="66.7%" y2="100%"><stop offset="20%" stop-color="#ffffff" stop-opacity="1"></stop><stop offset="80%" stop-color="#ffffff" stop-opacity="1"></stop></linearGradient></defs><g transform="translate(1800, 0)"><path d="M0 378.6C-48.7 339 -97.4 299.4 -157.5 272.8C-217.6 246.2 -289.1 232.6 -327.9 189.3C-366.6 146 -372.6 73 -378.6 0L0 0Z" fill="#0d6efd"></path></g><g transform="translate(0, 1200)"><path d="M0 -378.6C56.4 -352.4 112.9 -326.2 172 -297.9C231.1 -269.6 293 -239.3 327.9 -189.3C362.7 -139.3 370.7 -69.6 378.6 0L0 0Z" fill="#0d6efd"></path></g></svg>